<?xml version="1.0" encoding="UTF-8" standalone="no"?>
<!-- Created with Inkscape (http://www.inkscape.org/) -->

<svg
   xmlns:dc="http://purl.org/dc/elements/1.1/"
   xmlns:cc="http://creativecommons.org/ns#"
   xmlns:rdf="http://www.w3.org/1999/02/22-rdf-syntax-ns#"
   xmlns:svg="http://www.w3.org/2000/svg"
   xmlns="http://www.w3.org/2000/svg"
   xmlns:sodipodi="http://sodipodi.sourceforge.net/DTD/sodipodi-0.dtd"
   xmlns:inkscape="http://www.inkscape.org/namespaces/inkscape"
   width="30"
   height="30"
   viewBox="0 0 7.9374997 7.9375003"
   version="1.1"
   id="svg8"
   inkscape:version="0.92.1 r15371"
   sodipodi:docname="logo30x30.svg">
  <defs
     id="defs2">
    <inkscape:path-effect
       effect="skeletal"
       id="path-effect4527"
       is_visible="true"
       pattern="M 0,0 H 1"
       copytype="single_stretched"
       prop_scale="1000000"
       scale_y_rel="false"
       spacing="0"
       normal_offset="0"
       tang_offset="0"
       prop_units="false"
       vertical_pattern="false"
       fuse_tolerance="0" />
    <inkscape:path-effect
       effect="powerstroke"
       id="path-effect4525"
       is_visible="true"
       offset_points="0.99394787,0.14251981"
       sort_points="true"
       interpolator_type="CubicBezierJohan"
       interpolator_beta="0.19512195"
       start_linecap_type="zerowidth"
       linejoin_type="extrp_arc"
       miter_limit="4"
       end_linecap_type="round" />
  </defs>
  <sodipodi:namedview
     id="base"
     pagecolor="#ffffff"
     bordercolor="#666666"
     borderopacity="1.0"
     inkscape:pageopacity="0.0"
     inkscape:pageshadow="2"
     inkscape:zoom="3.959798"
     inkscape:cx="42.424556"
     inkscape:cy="55.885436"
     inkscape:document-units="px"
     inkscape:current-layer="layer1"
     showgrid="false"
     units="px"
     inkscape:snap-object-midpoints="false"
     inkscape:window-width="1366"
     inkscape:window-height="705"
     inkscape:window-x="369"
     inkscape:window-y="1072"
     inkscape:window-maximized="1" />
  <metadata
     id="metadata5">
    <rdf:RDF>
      <cc:Work
         rdf:about="">
        <dc:format>image/svg+xml</dc:format>
        <dc:type
           rdf:resource="http://purl.org/dc/dcmitype/StillImage" />
        <dc:title></dc:title>
      </cc:Work>
    </rdf:RDF>
  </metadata>
  <g
     inkscape:label="Layer 1"
     inkscape:groupmode="layer"
     id="layer1"
     transform="translate(0,-289.06248)">
    <path
       style="opacity:1;fill:#1e8acf;fill-opacity:1;stroke:none;stroke-width:0.15101665;stroke-linecap:round;stroke-linejoin:round;stroke-miterlimit:4;stroke-dasharray:none;stroke-dashoffset:0;stroke-opacity:1"
       d="M 6.0169384,292.50676 5.2587582,292.989 4.3146093,292.62798 3.2644241,292.9868 c -9.418e-4,0.0152 -0.00223,0.0301 -0.0028,0.0452 -0.00377,0.098 -0.010099,0.24259 -0.015337,0.38728 l -0.4860848,0.66644 c -0.068885,0.0944 -0.00134,0.22708 0.1154745,0.22698 l 0.3891923,0.0786 c 0.035186,0.34357 0.111743,0.65383 0.268556,0.81644 0.2110191,0.21881 0.5273213,0.22899 0.9645009,0.21988 0.027914,0.46396 -0.1641359,1.05587 -1.1445705,1.40974 h 3.9140477 c -1.8101595,-0.6727 -0.9619982,-2.2293 -0.9472459,-2.25607 0.3299093,-0.41017 0.5780435,-0.91262 0.6046563,-1.373 l 0.00266,-0.0712 c 0.00132,-0.07 -0.0016,-0.13908 -0.00797,-0.20721 z"
       id="path4485"
       inkscape:connector-curvature="0" />
    <path
       style="opacity:1;fill:#1e8acf;fill-opacity:1;stroke:none;stroke-width:0.15101665;stroke-linecap:round;stroke-linejoin:round;stroke-miterlimit:4;stroke-dasharray:none;stroke-dashoffset:0;stroke-opacity:1"
       d="M 6.8049176,290.43909 C 6.1828218,289.8263 5.2197389,289.7434 4.5055783,290.21828 l 0.9288817,0.54849 0.3653766,0.96154 0.8297423,0.20678 0.2899201,0.99478 c 0.5890802,-0.69552 0.5816724,-1.73575 -0.049518,-2.42342 -0.021255,-0.0232 -0.042917,-0.0455 -0.065063,-0.0674 z"
       id="path4499"
       inkscape:connector-curvature="0"
       sodipodi:nodetypes="scccccss" />
    <path
       style="opacity:1;fill:#4c2c66;fill-opacity:1;stroke:none;stroke-width:0.21654399;stroke-linecap:round;stroke-linejoin:round;stroke-miterlimit:4;stroke-dasharray:none;stroke-dashoffset:0;stroke-opacity:1"
       d="m 1.5184629,289.33532 0.1178342,0.4411 -0.84622411,-0.0206 0.32268011,0.32311 -0.74313764,0.40513 0.44095692,0.11857 -0.44095692,0.72249 0.44125178,-0.11784 -0.020794,0.84609 0.32312246,-0.32269 0.4052674,0.74329 0.1184242,-0.44111 0.7224907,0.44111 -0.1178343,-0.44125 0.846224,0.0206 -0.32268,-0.32312 0.7431375,-0.40512 -0.4409566,-0.11857 0.4409566,-0.72249 -0.4412515,0.11797 0.020793,-0.84621 -0.3231224,0.32267 -0.4052673,-0.74313 -0.1184242,0.44095 z m 0.4009904,1.07069 a 0.49889426,0.49889426 0 0 1 0.5030449,0.37577 l 0.00442,0.0189 a 0.49889426,0.49889426 0 0 1 -0.3793115,0.59079 0.49889426,0.49889426 0 0 1 -0.5944806,-0.37341 0.49889426,0.49889426 0 0 1 0.3676607,-0.59817 0.49889426,0.49889426 0 0 1 0.098662,-0.0138 z"
       id="path4512"
       inkscape:connector-curvature="0" />
    <path
       style="fill:#2c4566;fill-opacity:1;fill-rule:nonzero;stroke:none;stroke-width:0.07550833px;stroke-linecap:butt;stroke-linejoin:miter;stroke-opacity:1"
       d="m 5.2706403,292.21538 c -0.00985,-0.02 -0.017283,-0.0504 -0.029859,-0.10599 -0.00876,-0.0388 -0.021319,-0.0953 -0.039287,-0.15733 -0.031859,-0.10992 -0.086095,-0.25714 -0.1905043,-0.40774 -0.1074043,-0.1549 -0.2577898,-0.29878 -0.4635008,-0.41396 -0.2727338,-0.1527 -0.5795232,-0.2186 -0.8270299,-0.23997 -0.00502,-4.3e-4 -0.020798,-0.002 -0.025872,-0.002 a 0.14251981,0.14251981 90 0 0 -0.022329,0.28416 c 0.00465,3.7e-4 0.019094,0.002 0.023688,0.002 0.2309623,0.0199 0.4973473,0.0573 0.7503146,0.16231 0.1876791,0.0779 0.3352361,0.17987 0.4539813,0.29905 0.116445,0.11687 0.194103,0.23945 0.2483935,0.33812 0.029904,0.0543 0.055662,0.10714 0.072829,0.14233 0.024315,0.0498 0.040003,0.0806 0.049175,0.0992 z"
       id="path4523"
       inkscape:connector-curvature="0"
       inkscape:path-effect="#path-effect4525"
       inkscape:original-d="M 5.2706403,292.21538 C 5.1744918,292.01999 5.055797,291.13818 3.683423,291.03034"
       sodipodi:nodetypes="cc" />
  </g>
</svg>
